<svg width="24" height="24" viewBox="0 0 24 24" fill="none" xmlns="http://www.w3.org/2000/svg">
  <path d="M6.81 0.219C6.95056 0.0787966 7.14097 4.21785e-05 7.3395 0L16.6605 0C16.859 4.21785e-05 17.0494 0.0787966 17.19 0.219L23.781 6.81C23.9212 6.95056 24 7.14097 24 7.3395V16.6605C24 16.859 23.9212 17.0494 23.781 17.19L17.19 23.781C17.0494 23.9212 16.859 24 16.6605 24H7.3395C7.14097 24 6.95056 23.9212 6.81 23.781L0.219 17.19C0.0787966 17.0494 4.21785e-05 16.859 0 16.6605L0 7.3395C4.21785e-05 7.14097 0.0787966 6.95056 0.219 6.81L6.81 0.219ZM7.65 1.5L1.5 7.65V16.35L7.65 22.5H16.35L22.5 16.35V7.65L16.35 1.5H7.65Z" fill="#FAFAFB" />
  <path d="M6.969 6.96912C7.03867 6.89927 7.12143 6.84386 7.21255 6.80605C7.30366 6.76824 7.40135 6.74878 7.5 6.74878C7.59865 6.74878 7.69633 6.76824 7.78745 6.80605C7.87857 6.84386 7.96133 6.89927 8.031 6.96912L12 10.9396L15.969 6.96912C16.0387 6.89939 16.1215 6.84407 16.2126 6.80633C16.3037 6.7686 16.4014 6.74917 16.5 6.74917C16.5986 6.74917 16.6963 6.7686 16.7874 6.80633C16.8785 6.84407 16.9613 6.89939 17.031 6.96912C17.1007 7.03885 17.156 7.12164 17.1938 7.21274C17.2315 7.30385 17.2509 7.4015 17.2509 7.50012C17.2509 7.59874 17.2315 7.69639 17.1938 7.7875C17.156 7.8786 17.1007 7.96139 17.031 8.03112L13.0605 12.0001L17.031 15.9691C17.1007 16.0389 17.156 16.1216 17.1938 16.2127C17.2315 16.3039 17.2509 16.4015 17.2509 16.5001C17.2509 16.5987 17.2315 16.6964 17.1938 16.7875C17.156 16.8786 17.1007 16.9614 17.031 17.0311C16.9613 17.1009 16.8785 17.1562 16.7874 17.1939C16.6963 17.2316 16.5986 17.2511 16.5 17.2511C16.4014 17.2511 16.3037 17.2316 16.2126 17.1939C16.1215 17.1562 16.0387 17.1009 15.969 17.0311L12 13.0606L8.031 17.0311C7.96127 17.1009 7.87848 17.1562 7.78737 17.1939C7.69626 17.2316 7.59861 17.2511 7.5 17.2511C7.40138 17.2511 7.30373 17.2316 7.21262 17.1939C7.12151 17.1562 7.03873 17.1009 6.969 17.0311C6.89927 16.9614 6.84395 16.8786 6.80621 16.7875C6.76847 16.6964 6.74905 16.5987 6.74905 16.5001C6.74905 16.4015 6.76847 16.3039 6.80621 16.2127C6.84395 16.1216 6.89927 16.0389 6.969 15.9691L10.9395 12.0001L6.969 8.03112C6.89915 7.96145 6.84374 7.87869 6.80593 7.78757C6.76812 7.69645 6.74866 7.59877 6.74866 7.50012C6.74866 7.40147 6.76812 7.30379 6.80593 7.21267C6.84374 7.12155 6.89915 7.03879 6.969 6.96912Z" fill="#FAFAFB" />
</svg>